<?xml version="1.0" encoding="UTF-8" standalone="no"?><svg xmlns="http://www.w3.org/2000/svg" xmlns:xlink="http://www.w3.org/1999/xlink" contentScriptType="application/ecmascript" contentStyleType="text/css" height="358px" preserveAspectRatio="none" style="width:714px;height:358px;" version="1.1" viewBox="0 0 714 358" width="714px" zoomAndPan="magnify"><defs><filter height="300%" id="f175m8b6njrh3m" width="300%" x="-1" y="-1"><feGaussianBlur result="blurOut" stdDeviation="2.0"/><feColorMatrix in="blurOut" result="blurOut2" type="matrix" values="0 0 0 0 0 0 0 0 0 0 0 0 0 0 0 0 0 0 .4 0"/><feOffset dx="4.0" dy="4.0" in="blurOut2" result="blurOut3"/><feBlend in="SourceGraphic" in2="blurOut3" mode="normal"/></filter></defs><g><!--cluster NTOS--><rect fill="#FFFFFF" height="249" style="stroke: #808080; stroke-width: 1.5;" width="689.5" x="14" y="98"/><text fill="#808080" font-family="sans-serif" font-size="14" font-weight="bold" lengthAdjust="spacingAndGlyphs" textLength="41" x="338.25" y="113.5352">NTOS</text><!--cluster dummy--><!--cluster LXCORE--><rect fill="#FFFFFF" height="179" style="stroke: #808080; stroke-width: 1.5;" width="286.5" x="409" y="125"/><text fill="#808080" font-family="sans-serif" font-size="14" font-weight="bold" lengthAdjust="spacingAndGlyphs" textLength="57" x="523.75" y="140.5352">LXCORE</text><!--entity winfsp--><rect fill="#FEFECE" filter="url(#f175m8b6njrh3m)" height="46.4883" style="stroke: #A80036; stroke-width: 1.5;" width="85" x="30" y="250"/><rect fill="#FEFECE" height="10" style="stroke: #A80036; stroke-width: 1.5;" width="15" x="95" y="255"/><rect fill="#FEFECE" height="2" style="stroke: #A80036; stroke-width: 1.5;" width="4" x="93" y="257"/><rect fill="#FEFECE" height="2" style="stroke: #A80036; stroke-width: 1.5;" width="4" x="93" y="261"/><text fill="#000000" font-family="sans-serif" font-size="14" lengthAdjust="spacingAndGlyphs" textLength="45" x="45" y="283.5352">winfsp</text><!--entity FSP_FSCTL_TRANSACT--><ellipse cx="72.5" cy="161" fill="#FEFECE" filter="url(#f175m8b6njrh3m)" rx="8" ry="8" style="stroke: #A80036; stroke-width: 2.0;"/><text fill="#000000" font-family="sans-serif" font-size="14" lengthAdjust="spacingAndGlyphs" textLength="73" x="35" y="191.5352">FSP_FSCTL</text><text fill="#000000" font-family="sans-serif" font-size="14" lengthAdjust="spacingAndGlyphs" textLength="75" x="35" y="208.0234">TRANSACT</text><!--entity winfuse--><rect fill="#FA8072" filter="url(#f175m8b6njrh3m)" height="46.4883" style="stroke: #A80036; stroke-width: 1.5;" width="93" x="237" y="250"/><rect fill="#FA8072" height="10" style="stroke: #A80036; stroke-width: 1.5;" width="15" x="310" y="255"/><rect fill="#FA8072" height="2" style="stroke: #A80036; stroke-width: 1.5;" width="4" x="308" y="257"/><rect fill="#FA8072" height="2" style="stroke: #A80036; stroke-width: 1.5;" width="4" x="308" y="261"/><text fill="#000000" font-family="sans-serif" font-size="14" lengthAdjust="spacingAndGlyphs" textLength="53" x="252" y="283.5352">winfuse</text><!--entity FUSE_FSCTL_TRANSACT--><ellipse cx="283.5" cy="161" fill="#FA8072" filter="url(#f175m8b6njrh3m)" rx="8" ry="8" style="stroke: #A80036; stroke-width: 2.0;"/><text fill="#000000" font-family="sans-serif" font-size="14" lengthAdjust="spacingAndGlyphs" textLength="83" x="242" y="191.5352">FUSE_FSCTL</text><text fill="#000000" font-family="sans-serif" font-size="14" lengthAdjust="spacingAndGlyphs" textLength="75" x="242" y="208.0234">TRANSACT</text><!--entity wslfuse--><rect fill="#FA8072" filter="url(#f175m8b6njrh3m)" height="46.4883" style="stroke: #A80036; stroke-width: 1.5;" width="91" x="417" y="250"/><rect fill="#FA8072" height="10" style="stroke: #A80036; stroke-width: 1.5;" width="15" x="488" y="255"/><rect fill="#FA8072" height="2" style="stroke: #A80036; stroke-width: 1.5;" width="4" x="486" y="257"/><rect fill="#FA8072" height="2" style="stroke: #A80036; stroke-width: 1.5;" width="4" x="486" y="261"/><text fill="#000000" font-family="sans-serif" font-size="14" lengthAdjust="spacingAndGlyphs" textLength="51" x="432" y="283.5352">wslfuse</text><!--entity devfuse--><ellipse cx="462.5" cy="161" fill="#FA8072" filter="url(#f175m8b6njrh3m)" rx="8" ry="8" style="stroke: #A80036; stroke-width: 2.0;"/><text fill="#000000" font-family="sans-serif" font-size="14" lengthAdjust="spacingAndGlyphs" textLength="67" x="429" y="191.5352">/dev/fuse</text><!--entity lxldr--><rect fill="#FEFECE" filter="url(#f175m8b6njrh3m)" height="46.4883" style="stroke: #A80036; stroke-width: 1.5;" width="72" x="615.5" y="193"/><rect fill="#FEFECE" height="10" style="stroke: #A80036; stroke-width: 1.5;" width="15" x="667.5" y="198"/><rect fill="#FEFECE" height="2" style="stroke: #A80036; stroke-width: 1.5;" width="4" x="665.5" y="200"/><rect fill="#FEFECE" height="2" style="stroke: #A80036; stroke-width: 1.5;" width="4" x="665.5" y="204"/><text fill="#000000" font-family="sans-serif" font-size="14" lengthAdjust="spacingAndGlyphs" textLength="32" x="630.5" y="226.5352">lxldr</text><!--entity fspfs--><rect fill="#FEFECE" filter="url(#f175m8b6njrh3m)" height="62.9766" style="stroke: #A80036; stroke-width: 1.5;" width="109" x="18" y="8.5"/><rect fill="#FEFECE" height="10" style="stroke: #A80036; stroke-width: 1.5;" width="15" x="107" y="13.5"/><rect fill="#FEFECE" height="2" style="stroke: #A80036; stroke-width: 1.5;" width="4" x="105" y="15.5"/><rect fill="#FEFECE" height="2" style="stroke: #A80036; stroke-width: 1.5;" width="4" x="105" y="19.5"/><text fill="#000000" font-family="sans-serif" font-size="14" lengthAdjust="spacingAndGlyphs" textLength="61" x="33" y="42.0352">Windows</text><text fill="#000000" font-family="sans-serif" font-size="14" lengthAdjust="spacingAndGlyphs" textLength="69" x="33" y="58.5234">WinFsp FS</text><!--entity winfs--><rect fill="#FEFECE" filter="url(#f175m8b6njrh3m)" height="62.9766" style="stroke: #A80036; stroke-width: 1.5;" width="101" x="233" y="8.5"/><rect fill="#FEFECE" height="10" style="stroke: #A80036; stroke-width: 1.5;" width="15" x="314" y="13.5"/><rect fill="#FEFECE" height="2" style="stroke: #A80036; stroke-width: 1.5;" width="4" x="312" y="15.5"/><rect fill="#FEFECE" height="2" style="stroke: #A80036; stroke-width: 1.5;" width="4" x="312" y="19.5"/><text fill="#000000" font-family="sans-serif" font-size="14" lengthAdjust="spacingAndGlyphs" textLength="61" x="248" y="42.0352">Windows</text><text fill="#000000" font-family="sans-serif" font-size="14" lengthAdjust="spacingAndGlyphs" textLength="54" x="248" y="58.5234">FUSE FS</text><!--entity wslfs--><rect fill="#FEFECE" filter="url(#f175m8b6njrh3m)" height="62.9766" style="stroke: #A80036; stroke-width: 1.5;" width="94" x="415.5" y="8.5"/><rect fill="#FEFECE" height="10" style="stroke: #A80036; stroke-width: 1.5;" width="15" x="489.5" y="13.5"/><rect fill="#FEFECE" height="2" style="stroke: #A80036; stroke-width: 1.5;" width="4" x="487.5" y="15.5"/><rect fill="#FEFECE" height="2" style="stroke: #A80036; stroke-width: 1.5;" width="4" x="487.5" y="19.5"/><text fill="#000000" font-family="sans-serif" font-size="14" lengthAdjust="spacingAndGlyphs" textLength="38" x="430.5" y="42.0352">Linux</text><text fill="#000000" font-family="sans-serif" font-size="14" lengthAdjust="spacingAndGlyphs" textLength="54" x="430.5" y="58.5234">FUSE FS</text><!--link winfsp to FSP_FSCTL_TRANSACT--><path d="M72.5,249.7935 C72.5,225.1894 72.5,187.5451 72.5,170.2607 " fill="none" id="winfsp-FSP_FSCTL_TRANSACT" style="stroke: #A80036; stroke-width: 1.0;"/><!--link winfuse to FUSE_FSCTL_TRANSACT--><path d="M283.5,249.7935 C283.5,225.1894 283.5,187.5451 283.5,170.2607 " fill="none" id="winfuse-FUSE_FSCTL_TRANSACT" style="stroke: #A80036; stroke-width: 1.0;"/><!--link winfsp to winfuse--><path d="M115.199,273 C115.199,273 231.8318,273 231.8318,273 " fill="none" id="winfsp-&gt;winfuse" style="stroke: #A80036; stroke-width: 1.0; stroke-dasharray: 7.0,7.0;"/><polygon fill="#A80036" points="236.8318,273,227.8318,269,231.8318,273,227.8318,277,236.8318,273" style="stroke: #A80036; stroke-width: 1.0;"/><text fill="#000000" font-family="sans-serif" font-size="13" lengthAdjust="spacingAndGlyphs" textLength="34" x="163" y="247.5684">loads</text><!--reverse link FSP_FSCTL_TRANSACT to winfuse--><path d="M91.6246,161 C91.6246,161 256.5,161 256.5,161 C256.5,161 256.5,216.988 256.5,249.7935 " fill="none" id="FSP_FSCTL_TRANSACT&lt;-winfuse" style="stroke: #A80036; stroke-width: 1.0;"/><path d="M84.7028,169.4572 A9,9 0 0 0 84.7028 152.5428" fill="none" style="stroke: #A80036; stroke-width: 1.5;"/><!--link wslfuse to devfuse--><path d="M462.5,249.7935 C462.5,225.1894 462.5,187.5451 462.5,170.2607 " fill="none" id="wslfuse-devfuse" style="stroke: #A80036; stroke-width: 1.0;"/><!--reverse link wslfuse to lxldr--><path d="M490.5,244.8159 C490.5,244.8159 490.5,216 490.5,216 C490.5,216 567.9003,216 615.3685,216 " fill="none" id="wslfuse&lt;-lxldr" style="stroke: #A80036; stroke-width: 1.0; stroke-dasharray: 7.0,7.0;"/><polygon fill="#A80036" points="490.5,249.8159,494.5,240.8159,490.5,244.8159,486.5,240.8159,490.5,249.8159" style="stroke: #A80036; stroke-width: 1.0;"/><text fill="#000000" font-family="sans-serif" font-size="13" lengthAdjust="spacingAndGlyphs" textLength="34" x="545.5" y="212.5684">loads</text><!--link winfuse to wslfuse--><!--reverse link FUSE_FSCTL_TRANSACT to wslfuse--><path d="M302.5531,161 C302.5531,161 435.5,161 435.5,161 C435.5,161 435.5,216.988 435.5,249.7935 " fill="none" id="FUSE_FSCTL_TRANSACT&lt;-wslfuse" style="stroke: #A80036; stroke-width: 1.0;"/><path d="M295.6313,169.4572 A9,9 0 0 0 295.6313 152.5428" fill="none" style="stroke: #A80036; stroke-width: 1.5;"/><!--reverse link FSP_FSCTL_TRANSACT to fspfs--><path d="M72.5,141.9053 C72.5,141.9053 72.5,71.6012 72.5,71.6012 " fill="none" id="FSP_FSCTL_TRANSACT&lt;-fspfs" style="stroke: #A80036; stroke-width: 1.0;"/><path d="M80.9573,148.8272 A9,9 0 0 0 64.0428 148.827" fill="none" style="stroke: #A80036; stroke-width: 1.5;"/><!--reverse link FUSE_FSCTL_TRANSACT to winfs--><path d="M283.5,141.9053 C283.5,141.9053 283.5,71.6012 283.5,71.6012 " fill="none" id="FUSE_FSCTL_TRANSACT&lt;-winfs" style="stroke: #A80036; stroke-width: 1.0;"/><path d="M291.9573,148.8272 A9,9 0 0 0 275.0428 148.827" fill="none" style="stroke: #A80036; stroke-width: 1.5;"/><!--reverse link devfuse to wslfs--><path d="M462.5,141.9053 C462.5,141.9053 462.5,71.6012 462.5,71.6012 " fill="none" id="devfuse&lt;-wslfs" style="stroke: #A80036; stroke-width: 1.0;"/><path d="M470.9573,148.8272 A9,9 0 0 0 454.0428 148.827" fill="none" style="stroke: #A80036; stroke-width: 1.5;"/><!--
@startuml
left to right direction
skinparam componentStyle uml2
skinparam nodesep 80
skinparam ranksep 10
skinparam rectangle {
    fontcolor grey
    borderColor grey
    shadowing false
}
skinparam linetype ortho

rectangle NTOS {
    together dummy {
        component winfsp
        interface "FSP_FSCTL\nTRANSACT" as FSP_FSCTL_TRANSACT
        winfsp -right- FSP_FSCTL_TRANSACT

        component winfuse #Salmon
        interface "FUSE_FSCTL\nTRANSACT" as FUSE_FSCTL_TRANSACT #Salmon
        winfuse -right- FUSE_FSCTL_TRANSACT

        winfsp .down.> winfuse: loads
        winfuse -up-( FSP_FSCTL_TRANSACT
    }

    rectangle LXCORE {
        component wslfuse #Salmon
        interface "/dev/fuse" as devfuse #Salmon
        wslfuse -right- devfuse

        component lxldr

        lxldr .up.> wslfuse: loads
    }

    winfuse -[hidden]- wslfuse
    wslfuse -up- -( FUSE_FSCTL_TRANSACT
}

component "Windows\nWinFsp FS" as fspfs
fspfs -left-( FSP_FSCTL_TRANSACT

component "Windows\nFUSE FS" as winfs
winfs -left-( FUSE_FSCTL_TRANSACT

component "Linux\nFUSE FS" as wslfs
wslfs -left-( devfuse

@enduml

PlantUML version 1.2019.09(Mon Aug 26 09:19:51 PDT 2019)
(GPL source distribution)
Java Runtime: Java(TM) SE Runtime Environment
JVM: Java HotSpot(TM) 64-Bit Server VM
Java Version: 11.0.2+9-LTS
Operating System: Mac OS X
OS Version: 10.14.6
Default Encoding: UTF-8
Language: en
Country: US
--></g></svg>