<?xml version="1.0" encoding="UTF-8" standalone="no"?><svg xmlns="http://www.w3.org/2000/svg" xmlns:xlink="http://www.w3.org/1999/xlink" contentScriptType="application/ecmascript" contentStyleType="text/css" height="330px" preserveAspectRatio="none" style="width:777px;height:330px;" version="1.1" viewBox="0 0 777 330" width="777px" zoomAndPan="magnify"><defs><filter height="300%" id="fqs351qddchex" width="300%" x="-1" y="-1"><feGaussianBlur result="blurOut" stdDeviation="2.0"/><feColorMatrix in="blurOut" result="blurOut2" type="matrix" values="0 0 0 0 0 0 0 0 0 0 0 0 0 0 0 0 0 0 .4 0"/><feOffset dx="4.0" dy="4.0" in="blurOut2" result="blurOut3"/><feBlend in="SourceGraphic" in2="blurOut3" mode="normal"/></filter></defs><g><!--cluster NTOS--><rect fill="#FFFFFF" height="249" style="stroke: #808080; stroke-width: 1.5;" width="731.5" x="34.5" y="70"/><text fill="#808080" font-family="sans-serif" font-size="14" font-weight="bold" lengthAdjust="spacingAndGlyphs" textLength="41" x="379.75" y="85.5352">NTOS</text><!--cluster dummy--><!--cluster LXCORE--><rect fill="#FFFFFF" height="169" style="stroke: #808080; stroke-width: 1.5;" width="267.5" x="490.5" y="97"/><text fill="#808080" font-family="sans-serif" font-size="14" font-weight="bold" lengthAdjust="spacingAndGlyphs" textLength="57" x="595.75" y="112.5352">LXCORE</text><!--entity winfsp--><rect fill="#FEFECE" filter="url(#fqs351qddchex)" height="36.4883" style="stroke: #A80036; stroke-width: 1.5;" width="65" x="50.5" y="222"/><rect fill="#FEFECE" height="5" style="stroke: #A80036; stroke-width: 1.5;" width="10" x="45.5" y="227"/><rect fill="#FEFECE" height="5" style="stroke: #A80036; stroke-width: 1.5;" width="10" x="45.5" y="248.4883"/><text fill="#000000" font-family="sans-serif" font-size="14" lengthAdjust="spacingAndGlyphs" textLength="45" x="60.5" y="245.5352">winfsp</text><!--entity FSP_FSCTL_TRANSACT--><ellipse cx="83" cy="133" fill="#FEFECE" filter="url(#fqs351qddchex)" rx="8" ry="8" style="stroke: #A80036; stroke-width: 2.0;"/><text fill="#000000" font-family="sans-serif" font-size="14" lengthAdjust="spacingAndGlyphs" textLength="73" x="45.5" y="163.5352">FSP_FSCTL</text><text fill="#000000" font-family="sans-serif" font-size="14" lengthAdjust="spacingAndGlyphs" textLength="75" x="45.5" y="180.0234">TRANSACT</text><!--entity winfuse--><rect fill="#FA8072" filter="url(#fqs351qddchex)" height="36.4883" style="stroke: #A80036; stroke-width: 1.5;" width="73" x="299" y="222"/><rect fill="#FA8072" height="5" style="stroke: #A80036; stroke-width: 1.5;" width="10" x="294" y="227"/><rect fill="#FA8072" height="5" style="stroke: #A80036; stroke-width: 1.5;" width="10" x="294" y="248.4883"/><text fill="#000000" font-family="sans-serif" font-size="14" lengthAdjust="spacingAndGlyphs" textLength="53" x="309" y="245.5352">winfuse</text><!--entity FUSE_FSCTL_TRANSACT--><ellipse cx="335.5" cy="133" fill="#FA8072" filter="url(#fqs351qddchex)" rx="8" ry="8" style="stroke: #A80036; stroke-width: 2.0;"/><text fill="#000000" font-family="sans-serif" font-size="14" lengthAdjust="spacingAndGlyphs" textLength="83" x="294" y="163.5352">FUSE_FSCTL</text><text fill="#000000" font-family="sans-serif" font-size="14" lengthAdjust="spacingAndGlyphs" textLength="75" x="294" y="180.0234">TRANSACT</text><!--entity wslfuse--><rect fill="#FA8072" filter="url(#fqs351qddchex)" height="36.4883" style="stroke: #A80036; stroke-width: 1.5;" width="71" x="498.5" y="222"/><rect fill="#FA8072" height="5" style="stroke: #A80036; stroke-width: 1.5;" width="10" x="493.5" y="227"/><rect fill="#FA8072" height="5" style="stroke: #A80036; stroke-width: 1.5;" width="10" x="493.5" y="248.4883"/><text fill="#000000" font-family="sans-serif" font-size="14" lengthAdjust="spacingAndGlyphs" textLength="51" x="508.5" y="245.5352">wslfuse</text><!--entity devfuse--><ellipse cx="534" cy="133" fill="#FA8072" filter="url(#fqs351qddchex)" rx="8" ry="8" style="stroke: #A80036; stroke-width: 2.0;"/><text fill="#000000" font-family="sans-serif" font-size="14" lengthAdjust="spacingAndGlyphs" textLength="67" x="500.5" y="163.5352">/dev/fuse</text><!--entity lxldr--><rect fill="#FEFECE" filter="url(#fqs351qddchex)" height="36.4883" style="stroke: #A80036; stroke-width: 1.5;" width="52" x="698" y="160"/><rect fill="#FEFECE" height="5" style="stroke: #A80036; stroke-width: 1.5;" width="10" x="693" y="165"/><rect fill="#FEFECE" height="5" style="stroke: #A80036; stroke-width: 1.5;" width="10" x="693" y="186.4883"/><text fill="#000000" font-family="sans-serif" font-size="14" lengthAdjust="spacingAndGlyphs" textLength="32" x="708" y="183.5352">lxldr</text><!--entity fspfs--><rect fill="#FEFECE" filter="url(#fqs351qddchex)" height="36.4883" style="stroke: #A80036; stroke-width: 1.5;" width="154" x="6" y="8"/><rect fill="#FEFECE" height="5" style="stroke: #A80036; stroke-width: 1.5;" width="10" x="1" y="13"/><rect fill="#FEFECE" height="5" style="stroke: #A80036; stroke-width: 1.5;" width="10" x="1" y="34.4883"/><text fill="#000000" font-family="sans-serif" font-size="14" lengthAdjust="spacingAndGlyphs" textLength="134" x="16" y="31.5352">Windows WinFsp FS</text><!--entity winfs--><rect fill="#FEFECE" filter="url(#fqs351qddchex)" height="36.4883" style="stroke: #A80036; stroke-width: 1.5;" width="139" x="266" y="8"/><rect fill="#FEFECE" height="5" style="stroke: #A80036; stroke-width: 1.5;" width="10" x="261" y="13"/><rect fill="#FEFECE" height="5" style="stroke: #A80036; stroke-width: 1.5;" width="10" x="261" y="34.4883"/><text fill="#000000" font-family="sans-serif" font-size="14" lengthAdjust="spacingAndGlyphs" textLength="119" x="276" y="31.5352">Windows FUSE FS</text><!--entity wslfs--><rect fill="#FEFECE" filter="url(#fqs351qddchex)" height="36.4883" style="stroke: #A80036; stroke-width: 1.5;" width="116" x="476" y="8"/><rect fill="#FEFECE" height="5" style="stroke: #A80036; stroke-width: 1.5;" width="10" x="471" y="13"/><rect fill="#FEFECE" height="5" style="stroke: #A80036; stroke-width: 1.5;" width="10" x="471" y="34.4883"/><text fill="#000000" font-family="sans-serif" font-size="14" lengthAdjust="spacingAndGlyphs" textLength="96" x="486" y="31.5352">Linux FUSE FS</text><!--link winfsp to FSP_FSCTL_TRANSACT--><path d="M83,221.8489 C83,198.7147 83,159.6192 83,142.0392 " fill="none" id="winfsp-FSP_FSCTL_TRANSACT" style="stroke: #A80036; stroke-width: 1.0;"/><!--link winfuse to FUSE_FSCTL_TRANSACT--><path d="M336,221.8489 C336,198.7147 336,159.6192 336,142.0392 " fill="none" id="winfuse-FUSE_FSCTL_TRANSACT" style="stroke: #A80036; stroke-width: 1.0;"/><!--link winfsp to winfuse--><path d="M115.7511,240 C115.7511,240 293.7131,240 293.7131,240 " fill="none" id="winfsp-&gt;winfuse" style="stroke: #A80036; stroke-width: 1.0; stroke-dasharray: 7.0,7.0;"/><polygon fill="#A80036" points="298.7131,240,289.7131,236,293.7131,240,289.7131,244,298.7131,240" style="stroke: #A80036; stroke-width: 1.0;"/><text fill="#000000" font-family="sans-serif" font-size="13" lengthAdjust="spacingAndGlyphs" textLength="34" x="196" y="219.5684">loads</text><!--reverse link FSP_FSCTL_TRANSACT to winfuse--><path d="M102.0163,133 C102.0163,133 313,133 313,133 C313,133 313,191.3213 313,221.8489 " fill="none" id="FSP_FSCTL_TRANSACT&lt;-winfuse" style="stroke: #A80036; stroke-width: 1.0;"/><path d="M95.0946,141.4572 A9,9 0 0 0 95.0944 124.5427" fill="none" style="stroke: #A80036; stroke-width: 1.5;"/><!--link wslfuse to devfuse--><path d="M534,221.8489 C534,198.7147 534,159.6192 534,142.0392 " fill="none" id="wslfuse-devfuse" style="stroke: #A80036; stroke-width: 1.0;"/><!--reverse link wslfuse to lxldr--><path d="M557,216.7333 C557,216.7333 557,178 557,178 C557,178 650.9375,178 697.9063,178 " fill="none" id="wslfuse&lt;-lxldr" style="stroke: #A80036; stroke-width: 1.0; stroke-dasharray: 7.0,7.0;"/><polygon fill="#A80036" points="557,221.7333,561,212.7333,557,216.7333,553,212.7333,557,221.7333" style="stroke: #A80036; stroke-width: 1.0;"/><text fill="#000000" font-family="sans-serif" font-size="13" lengthAdjust="spacingAndGlyphs" textLength="34" x="628" y="174.5684">loads</text><!--link winfuse to wslfuse--><!--reverse link FUSE_FSCTL_TRANSACT to wslfuse--><path d="M354.9894,133 C354.9894,133 512,133 512,133 C512,133 512,191.3213 512,221.8489 " fill="none" id="FUSE_FSCTL_TRANSACT&lt;-wslfuse" style="stroke: #A80036; stroke-width: 1.0;"/><path d="M348.0676,141.4572 A9,9 0 0 0 348.0676 124.5428" fill="none" style="stroke: #A80036; stroke-width: 1.5;"/><!--reverse link FSP_FSCTL_TRANSACT to fspfs--><path d="M83,113.8772 C83,113.8772 83,44.28 83,44.28 " fill="none" id="FSP_FSCTL_TRANSACT&lt;-fspfs" style="stroke: #A80036; stroke-width: 1.0;"/><path d="M91.4573,120.7991 A9,9 0 0 0 74.5428 120.7989" fill="none" style="stroke: #A80036; stroke-width: 1.5;"/><!--reverse link FUSE_FSCTL_TRANSACT to winfs--><path d="M336,113.8772 C336,113.8772 336,44.28 336,44.28 " fill="none" id="FUSE_FSCTL_TRANSACT&lt;-winfs" style="stroke: #A80036; stroke-width: 1.0;"/><path d="M344.4573,120.7991 A9,9 0 0 0 327.5428 120.7989" fill="none" style="stroke: #A80036; stroke-width: 1.5;"/><!--reverse link devfuse to wslfs--><path d="M534,113.8772 C534,113.8772 534,44.28 534,44.28 " fill="none" id="devfuse&lt;-wslfs" style="stroke: #A80036; stroke-width: 1.0;"/><path d="M542.4573,120.7991 A9,9 0 0 0 525.5428 120.7989" fill="none" style="stroke: #A80036; stroke-width: 1.5;"/><!--
@startuml
left to right direction
skinparam nodesep 80
skinparam ranksep 10
skinparam rectangle {
    fontcolor grey
    borderColor grey
    shadowing false
}
skinparam linetype ortho

rectangle NTOS {
    together dummy {
        component winfsp
        interface "FSP_FSCTL\nTRANSACT" as FSP_FSCTL_TRANSACT
        winfsp -right- FSP_FSCTL_TRANSACT

        component winfuse #Salmon
        interface "FUSE_FSCTL\nTRANSACT" as FUSE_FSCTL_TRANSACT #Salmon
        winfuse -right- FUSE_FSCTL_TRANSACT

        winfsp .down.> winfuse: loads
        winfuse -up-( FSP_FSCTL_TRANSACT
    }

    rectangle LXCORE {
        component wslfuse #Salmon
        interface "/dev/fuse" as devfuse #Salmon
        wslfuse -right- devfuse

        component lxldr

        lxldr .up.> wslfuse: loads
    }

    winfuse -[hidden]- wslfuse
    wslfuse -up- -( FUSE_FSCTL_TRANSACT
}

component "Windows WinFsp FS" as fspfs
fspfs -left-( FSP_FSCTL_TRANSACT

component "Windows FUSE FS" as winfs
winfs -left-( FUSE_FSCTL_TRANSACT

component "Linux FUSE FS" as wslfs
wslfs -left-( devfuse

@enduml

PlantUML version 1.2019.09(Mon Aug 26 09:19:51 PDT 2019)
(GPL source distribution)
Java Runtime: Java(TM) SE Runtime Environment
JVM: Java HotSpot(TM) 64-Bit Server VM
Java Version: 11.0.2+9-LTS
Operating System: Mac OS X
OS Version: 10.14.6
Default Encoding: UTF-8
Language: en
Country: US
--></g></svg>