<?xml version="1.0" encoding="UTF-8" standalone="no"?><svg xmlns="http://www.w3.org/2000/svg" xmlns:xlink="http://www.w3.org/1999/xlink" contentScriptType="application/ecmascript" contentStyleType="text/css" height="330px" preserveAspectRatio="none" style="width:712px;height:330px;" version="1.1" viewBox="0 0 712 330" width="712px" zoomAndPan="magnify"><defs><filter height="300%" id="f191p6faj8ebxs" width="300%" x="-1" y="-1"><feGaussianBlur result="blurOut" stdDeviation="2.0"/><feColorMatrix in="blurOut" result="blurOut2" type="matrix" values="0 0 0 0 0 0 0 0 0 0 0 0 0 0 0 0 0 0 .4 0"/><feOffset dx="4.0" dy="4.0" in="blurOut2" result="blurOut3"/><feBlend in="SourceGraphic" in2="blurOut3" mode="normal"/></filter></defs><g><!--cluster NTOS--><rect fill="#FFFFFF" height="249" style="stroke: #808080; stroke-width: 1.5;" width="687" x="14" y="70"/><text fill="#808080" font-family="sans-serif" font-size="14" font-weight="bold" lengthAdjust="spacingAndGlyphs" textLength="41" x="337" y="85.5352">NTOS</text><!--cluster dummy--><!--cluster LXCORE--><rect fill="#FFFFFF" height="169" style="stroke: #808080; stroke-width: 1.5;" width="267.5" x="425.5" y="97"/><text fill="#808080" font-family="sans-serif" font-size="14" font-weight="bold" lengthAdjust="spacingAndGlyphs" textLength="57" x="530.75" y="112.5352">LXCORE</text><!--entity winfsp--><rect fill="#FEFECE" filter="url(#f191p6faj8ebxs)" height="36.4883" style="stroke: #A80036; stroke-width: 1.5;" width="65" x="30" y="222"/><rect fill="#FEFECE" height="5" style="stroke: #A80036; stroke-width: 1.5;" width="10" x="25" y="227"/><rect fill="#FEFECE" height="5" style="stroke: #A80036; stroke-width: 1.5;" width="10" x="25" y="248.4883"/><text fill="#000000" font-family="sans-serif" font-size="14" lengthAdjust="spacingAndGlyphs" textLength="45" x="40" y="245.5352">winfsp</text><!--entity FSP_FSCTL_TRANSACT--><ellipse cx="62.5" cy="133" fill="#FEFECE" filter="url(#f191p6faj8ebxs)" rx="8" ry="8" style="stroke: #A80036; stroke-width: 2.0;"/><text fill="#000000" font-family="sans-serif" font-size="14" lengthAdjust="spacingAndGlyphs" textLength="73" x="25" y="163.5352">FSP_FSCTL</text><text fill="#000000" font-family="sans-serif" font-size="14" lengthAdjust="spacingAndGlyphs" textLength="75" x="25" y="180.0234">TRANSACT</text><!--entity winfuse--><rect fill="#FA8072" filter="url(#f191p6faj8ebxs)" height="36.4883" style="stroke: #A80036; stroke-width: 1.5;" width="73" x="234" y="222"/><rect fill="#FA8072" height="5" style="stroke: #A80036; stroke-width: 1.5;" width="10" x="229" y="227"/><rect fill="#FA8072" height="5" style="stroke: #A80036; stroke-width: 1.5;" width="10" x="229" y="248.4883"/><text fill="#000000" font-family="sans-serif" font-size="14" lengthAdjust="spacingAndGlyphs" textLength="53" x="244" y="245.5352">winfuse</text><!--entity FUSE_FSCTL_TRANSACT--><ellipse cx="270.5" cy="133" fill="#FA8072" filter="url(#f191p6faj8ebxs)" rx="8" ry="8" style="stroke: #A80036; stroke-width: 2.0;"/><text fill="#000000" font-family="sans-serif" font-size="14" lengthAdjust="spacingAndGlyphs" textLength="83" x="229" y="163.5352">FUSE_FSCTL</text><text fill="#000000" font-family="sans-serif" font-size="14" lengthAdjust="spacingAndGlyphs" textLength="75" x="229" y="180.0234">TRANSACT</text><!--entity wslfuse--><rect fill="#FA8072" filter="url(#f191p6faj8ebxs)" height="36.4883" style="stroke: #A80036; stroke-width: 1.5;" width="71" x="433.5" y="222"/><rect fill="#FA8072" height="5" style="stroke: #A80036; stroke-width: 1.5;" width="10" x="428.5" y="227"/><rect fill="#FA8072" height="5" style="stroke: #A80036; stroke-width: 1.5;" width="10" x="428.5" y="248.4883"/><text fill="#000000" font-family="sans-serif" font-size="14" lengthAdjust="spacingAndGlyphs" textLength="51" x="443.5" y="245.5352">wslfuse</text><!--entity devfuse--><ellipse cx="469" cy="133" fill="#FA8072" filter="url(#f191p6faj8ebxs)" rx="8" ry="8" style="stroke: #A80036; stroke-width: 2.0;"/><text fill="#000000" font-family="sans-serif" font-size="14" lengthAdjust="spacingAndGlyphs" textLength="67" x="435.5" y="163.5352">/dev/fuse</text><!--entity lxldr--><rect fill="#FEFECE" filter="url(#f191p6faj8ebxs)" height="36.4883" style="stroke: #A80036; stroke-width: 1.5;" width="52" x="633" y="160"/><rect fill="#FEFECE" height="5" style="stroke: #A80036; stroke-width: 1.5;" width="10" x="628" y="165"/><rect fill="#FEFECE" height="5" style="stroke: #A80036; stroke-width: 1.5;" width="10" x="628" y="186.4883"/><text fill="#000000" font-family="sans-serif" font-size="14" lengthAdjust="spacingAndGlyphs" textLength="32" x="643" y="183.5352">lxldr</text><!--entity winfs--><rect fill="#FEFECE" filter="url(#f191p6faj8ebxs)" height="36.4883" style="stroke: #A80036; stroke-width: 1.5;" width="139" x="201" y="8"/><rect fill="#FEFECE" height="5" style="stroke: #A80036; stroke-width: 1.5;" width="10" x="196" y="13"/><rect fill="#FEFECE" height="5" style="stroke: #A80036; stroke-width: 1.5;" width="10" x="196" y="34.4883"/><text fill="#000000" font-family="sans-serif" font-size="14" lengthAdjust="spacingAndGlyphs" textLength="119" x="211" y="31.5352">Windows FUSE FS</text><!--entity wslfs--><rect fill="#FEFECE" filter="url(#f191p6faj8ebxs)" height="36.4883" style="stroke: #A80036; stroke-width: 1.5;" width="116" x="411" y="8"/><rect fill="#FEFECE" height="5" style="stroke: #A80036; stroke-width: 1.5;" width="10" x="406" y="13"/><rect fill="#FEFECE" height="5" style="stroke: #A80036; stroke-width: 1.5;" width="10" x="406" y="34.4883"/><text fill="#000000" font-family="sans-serif" font-size="14" lengthAdjust="spacingAndGlyphs" textLength="96" x="421" y="31.5352">Linux FUSE FS</text><!--link winfsp to FSP_FSCTL_TRANSACT--><path d="M63,221.8489 C63,198.7147 63,159.6192 63,142.0392 " fill="none" id="winfsp-FSP_FSCTL_TRANSACT" style="stroke: #A80036; stroke-width: 1.0;"/><!--link winfuse to FUSE_FSCTL_TRANSACT--><path d="M271,221.8489 C271,198.7147 271,159.6192 271,142.0392 " fill="none" id="winfuse-FUSE_FSCTL_TRANSACT" style="stroke: #A80036; stroke-width: 1.0;"/><!--link winfsp to winfuse--><path d="M95.4582,240 C95.4582,240 228.8439,240 228.8439,240 " fill="none" id="winfsp-&gt;winfuse" style="stroke: #A80036; stroke-width: 1.0; stroke-dasharray: 7.0,7.0;"/><polygon fill="#A80036" points="233.8439,240,224.8439,236,228.8439,240,224.8439,244,233.8439,240" style="stroke: #A80036; stroke-width: 1.0;"/><text fill="#000000" font-family="sans-serif" font-size="13" lengthAdjust="spacingAndGlyphs" textLength="34" x="131" y="219.5684">loads</text><!--reverse link FSP_FSCTL_TRANSACT to winfuse--><path d="M81.699,133 C81.699,133 248,133 248,133 C248,133 248,191.3213 248,221.8489 " fill="none" id="FSP_FSCTL_TRANSACT&lt;-winfuse" style="stroke: #A80036; stroke-width: 1.0;"/><path d="M74.7773,141.4572 A9,9 0 0 0 74.7771 124.5427" fill="none" style="stroke: #A80036; stroke-width: 1.5;"/><!--link wslfuse to devfuse--><path d="M469,221.8489 C469,198.7147 469,159.6192 469,142.0392 " fill="none" id="wslfuse-devfuse" style="stroke: #A80036; stroke-width: 1.0;"/><!--reverse link wslfuse to lxldr--><path d="M492,216.7333 C492,216.7333 492,178 492,178 C492,178 585.9375,178 632.9063,178 " fill="none" id="wslfuse&lt;-lxldr" style="stroke: #A80036; stroke-width: 1.0; stroke-dasharray: 7.0,7.0;"/><polygon fill="#A80036" points="492,221.7333,496,212.7333,492,216.7333,488,212.7333,492,221.7333" style="stroke: #A80036; stroke-width: 1.0;"/><text fill="#000000" font-family="sans-serif" font-size="13" lengthAdjust="spacingAndGlyphs" textLength="34" x="563" y="174.5684">loads</text><!--link winfuse to wslfuse--><!--reverse link FUSE_FSCTL_TRANSACT to wslfuse--><path d="M289.9894,133 C289.9894,133 447,133 447,133 C447,133 447,191.3213 447,221.8489 " fill="none" id="FUSE_FSCTL_TRANSACT&lt;-wslfuse" style="stroke: #A80036; stroke-width: 1.0;"/><path d="M283.0676,141.4572 A9,9 0 0 0 283.0676 124.5428" fill="none" style="stroke: #A80036; stroke-width: 1.5;"/><!--reverse link FUSE_FSCTL_TRANSACT to winfs--><path d="M271,113.8772 C271,113.8772 271,44.28 271,44.28 " fill="none" id="FUSE_FSCTL_TRANSACT&lt;-winfs" style="stroke: #A80036; stroke-width: 1.0;"/><path d="M279.4573,120.7991 A9,9 0 0 0 262.5428 120.7989" fill="none" style="stroke: #A80036; stroke-width: 1.5;"/><!--reverse link devfuse to wslfs--><path d="M469,113.8772 C469,113.8772 469,44.28 469,44.28 " fill="none" id="devfuse&lt;-wslfs" style="stroke: #A80036; stroke-width: 1.0;"/><path d="M477.4573,120.7991 A9,9 0 0 0 460.5428 120.7989" fill="none" style="stroke: #A80036; stroke-width: 1.5;"/><!--
@startuml
left to right direction
skinparam nodesep 80
skinparam ranksep 10
skinparam rectangle {
    fontcolor grey
    borderColor grey
    shadowing false
}
skinparam linetype ortho

rectangle NTOS {
    together dummy {
        component winfsp
        interface "FSP_FSCTL\nTRANSACT" as FSP_FSCTL_TRANSACT
        winfsp -right- FSP_FSCTL_TRANSACT

        component winfuse #Salmon
        interface "FUSE_FSCTL\nTRANSACT" as FUSE_FSCTL_TRANSACT #Salmon
        winfuse -right- FUSE_FSCTL_TRANSACT

        winfsp .down.> winfuse: loads
        winfuse -up-( FSP_FSCTL_TRANSACT
    }

    rectangle LXCORE {
        component wslfuse #Salmon
        interface "/dev/fuse" as devfuse #Salmon
        wslfuse -right- devfuse

        component lxldr

        lxldr .up.> wslfuse: loads
    }

    winfuse -[hidden]- wslfuse
    wslfuse -up- -( FUSE_FSCTL_TRANSACT
}

component "Windows FUSE FS" as winfs
winfs -left-( FUSE_FSCTL_TRANSACT

component "Linux FUSE FS" as wslfs
wslfs -left-( devfuse

@enduml

PlantUML version 1.2019.09(Mon Aug 26 09:19:51 PDT 2019)
(GPL source distribution)
Java Runtime: Java(TM) SE Runtime Environment
JVM: Java HotSpot(TM) 64-Bit Server VM
Java Version: 11.0.2+9-LTS
Operating System: Mac OS X
OS Version: 10.14.6
Default Encoding: UTF-8
Language: en
Country: US
--></g></svg>