<?xml version="1.0" encoding="UTF-8" standalone="no"?><svg xmlns="http://www.w3.org/2000/svg" xmlns:xlink="http://www.w3.org/1999/xlink" contentScriptType="application/ecmascript" contentStyleType="text/css" height="337px" preserveAspectRatio="none" style="width:648px;height:337px;" version="1.1" viewBox="0 0 648 337" width="648px" zoomAndPan="magnify"><defs/><g><!--MD5=[e1ba2932e2b35c7a1f821bb3bc45c411]
cluster NTOS--><rect fill="#FFFFFF" height="236" style="stroke: #808080; stroke-width: 1.5;" width="615" x="22" y="90"/><text fill="#808080" font-family="sans-serif" font-size="14" font-weight="bold" lengthAdjust="spacingAndGlyphs" textLength="38" x="310.5" y="106.5332">NTOS</text><!--MD5=[dcd69f5408f7a297bc454ec875ec6dae]
cluster dummy--><!--MD5=[28b62defe10c1ef644e7a5f397a6ae4c]
cluster LXCORE--><rect fill="#FFFFFF" height="168" style="stroke: #808080; stroke-width: 1.5;" width="252" x="361" y="134"/><text fill="#808080" font-family="sans-serif" font-size="14" font-weight="bold" lengthAdjust="spacingAndGlyphs" textLength="57" x="458.5" y="150.5332">LXCORE</text><!--MD5=[c58b6303eb6f8199f25bb8f813022f53]
entity winfuse--><rect fill="#FA8072" height="47.6094" style="stroke: #A80036; stroke-width: 1.5;" width="87" x="62" y="238"/><rect fill="#FA8072" height="10" style="stroke: #A80036; stroke-width: 1.5;" width="15" x="129" y="243"/><rect fill="#FA8072" height="2" style="stroke: #A80036; stroke-width: 1.5;" width="4" x="127" y="245"/><rect fill="#FA8072" height="2" style="stroke: #A80036; stroke-width: 1.5;" width="4" x="127" y="249"/><text fill="#000000" font-family="sans-serif" font-size="14" lengthAdjust="spacingAndGlyphs" textLength="47" x="77" y="272.5332">winfuse</text><!--MD5=[521aaffa7bdf9c908122172e32ea7c69]
entity FUSE_FSCTL_TRANSACT--><ellipse cx="105.5" cy="179" fill="#FA8072" rx="8" ry="8" style="stroke: #A80036; stroke-width: 2.0;"/><text fill="#000000" font-family="sans-serif" font-size="14" lengthAdjust="spacingAndGlyphs" textLength="89" x="61" y="210.5332">FUSE_FSCTL</text><text fill="#000000" font-family="sans-serif" font-size="14" lengthAdjust="spacingAndGlyphs" textLength="74" x="61" y="228.1426">TRANSACT</text><!--MD5=[30cbdba9992a8272de0601d08317a1ed]
entity winfsp--><rect fill="#FEFECE" height="47.6094" style="stroke: #A80036; stroke-width: 1.5;" width="79" x="233" y="238"/><rect fill="#FEFECE" height="10" style="stroke: #A80036; stroke-width: 1.5;" width="15" x="292" y="243"/><rect fill="#FEFECE" height="2" style="stroke: #A80036; stroke-width: 1.5;" width="4" x="290" y="245"/><rect fill="#FEFECE" height="2" style="stroke: #A80036; stroke-width: 1.5;" width="4" x="290" y="249"/><text fill="#000000" font-family="sans-serif" font-size="14" lengthAdjust="spacingAndGlyphs" textLength="39" x="248" y="272.5332">winfsp</text><!--MD5=[f1ccebe6d5b84ca0c126483b550c3139]
entity FSP_FSCTL_TRANSACT--><ellipse cx="272.5" cy="179" fill="#FEFECE" rx="8" ry="8" style="stroke: #A80036; stroke-width: 2.0;"/><text fill="#000000" font-family="sans-serif" font-size="14" lengthAdjust="spacingAndGlyphs" textLength="80" x="232.5" y="210.5332">FSP_FSCTL</text><text fill="#000000" font-family="sans-serif" font-size="14" lengthAdjust="spacingAndGlyphs" textLength="74" x="232.5" y="228.1426">TRANSACT</text><!--MD5=[1c7757e91ffb7fdc3d0f92fea4220da7]
entity wslfuse--><rect fill="#FA8072" height="47.6094" style="stroke: #A80036; stroke-width: 1.5;" width="86" x="377" y="238"/><rect fill="#FA8072" height="10" style="stroke: #A80036; stroke-width: 1.5;" width="15" x="443" y="243"/><rect fill="#FA8072" height="2" style="stroke: #A80036; stroke-width: 1.5;" width="4" x="441" y="245"/><rect fill="#FA8072" height="2" style="stroke: #A80036; stroke-width: 1.5;" width="4" x="441" y="249"/><text fill="#000000" font-family="sans-serif" font-size="14" lengthAdjust="spacingAndGlyphs" textLength="46" x="392" y="272.5332">wslfuse</text><!--MD5=[b0170bcaa05f2aa19bafa23486a748b3]
entity devfuse--><ellipse cx="420" cy="179" fill="#FA8072" rx="8" ry="8" style="stroke: #A80036; stroke-width: 2.0;"/><text fill="#000000" font-family="sans-serif" font-size="14" lengthAdjust="spacingAndGlyphs" textLength="58" x="391" y="210.5332">/dev/fuse</text><!--MD5=[6f0b79020a67c08aa6114fb7a4a18be4]
entity lxldr--><rect fill="#FEFECE" height="47.6094" style="stroke: #A80036; stroke-width: 1.5;" width="65" x="532" y="212"/><rect fill="#FEFECE" height="10" style="stroke: #A80036; stroke-width: 1.5;" width="15" x="577" y="217"/><rect fill="#FEFECE" height="2" style="stroke: #A80036; stroke-width: 1.5;" width="4" x="575" y="219"/><rect fill="#FEFECE" height="2" style="stroke: #A80036; stroke-width: 1.5;" width="4" x="575" y="223"/><text fill="#000000" font-family="sans-serif" font-size="14" lengthAdjust="spacingAndGlyphs" textLength="25" x="547" y="246.5332">lxldr</text><!--MD5=[dd3377c468e6dec7124233188d979c09]
entity fspfs--><rect fill="#FEFECE" height="65.2188" style="stroke: #A80036; stroke-width: 1.5;" width="110" x="217.5" y="8.5"/><rect fill="#FEFECE" height="10" style="stroke: #A80036; stroke-width: 1.5;" width="15" x="307.5" y="13.5"/><rect fill="#FEFECE" height="2" style="stroke: #A80036; stroke-width: 1.5;" width="4" x="305.5" y="15.5"/><rect fill="#FEFECE" height="2" style="stroke: #A80036; stroke-width: 1.5;" width="4" x="305.5" y="19.5"/><text fill="#000000" font-family="sans-serif" font-size="14" lengthAdjust="spacingAndGlyphs" textLength="56" x="232.5" y="43.0332">Windows</text><text fill="#000000" font-family="sans-serif" font-size="14" lengthAdjust="spacingAndGlyphs" textLength="70" x="232.5" y="60.6426">WinFsp FS</text><!--MD5=[8b8ecb134b999881ab55f66527e1b7e6]
entity winfs--><rect fill="#FEFECE" height="65.2188" style="stroke: #A80036; stroke-width: 1.5;" width="98" x="56.5" y="8.5"/><rect fill="#FEFECE" height="10" style="stroke: #A80036; stroke-width: 1.5;" width="15" x="134.5" y="13.5"/><rect fill="#FEFECE" height="2" style="stroke: #A80036; stroke-width: 1.5;" width="4" x="132.5" y="15.5"/><rect fill="#FEFECE" height="2" style="stroke: #A80036; stroke-width: 1.5;" width="4" x="132.5" y="19.5"/><text fill="#000000" font-family="sans-serif" font-size="14" lengthAdjust="spacingAndGlyphs" textLength="56" x="71.5" y="43.0332">Windows</text><text fill="#000000" font-family="sans-serif" font-size="14" lengthAdjust="spacingAndGlyphs" textLength="58" x="71.5" y="60.6426">FUSE FS</text><!--MD5=[44c30a54601430ef4099b2c9c7219643]
entity wslfs--><rect fill="#FEFECE" height="65.2188" style="stroke: #A80036; stroke-width: 1.5;" width="98" x="371" y="8.5"/><rect fill="#FEFECE" height="10" style="stroke: #A80036; stroke-width: 1.5;" width="15" x="449" y="13.5"/><rect fill="#FEFECE" height="2" style="stroke: #A80036; stroke-width: 1.5;" width="4" x="447" y="15.5"/><rect fill="#FEFECE" height="2" style="stroke: #A80036; stroke-width: 1.5;" width="4" x="447" y="19.5"/><text fill="#000000" font-family="sans-serif" font-size="14" lengthAdjust="spacingAndGlyphs" textLength="33" x="386" y="43.0332">Linux</text><text fill="#000000" font-family="sans-serif" font-size="14" lengthAdjust="spacingAndGlyphs" textLength="58" x="386" y="60.6426">FUSE FS</text><!--MD5=[21e9d30fbd39497e3873deb53215737c]
link winfuse to FUSE_FSCTL_TRANSACT--><path d="M106,237.993 C106,221.332 106,200.066 106,188.152 " fill="none" id="winfuse-FUSE_FSCTL_TRANSACT" style="stroke: #A80036; stroke-width: 1.0;"/><!--MD5=[b95d41ecf618fd04edc7af046b872b34]
link winfsp to FSP_FSCTL_TRANSACT--><path d="M273,237.993 C273,221.332 273,200.066 273,188.152 " fill="none" id="winfsp-FSP_FSCTL_TRANSACT" style="stroke: #A80036; stroke-width: 1.0;"/><!--MD5=[231e851951160f170ca2845bc8268c32]
reverse link winfuse to winfsp--><path d="M154.377,262 C154.377,262 232.91,262 232.91,262 " fill="none" id="winfuse&lt;-winfsp" style="stroke: #A80036; stroke-width: 1.0; stroke-dasharray: 7.0,7.0;"/><polygon fill="#A80036" points="149.377,262,158.377,266,154.377,262,158.377,258,149.377,262" style="stroke: #A80036; stroke-width: 1.0;"/><text fill="#000000" font-family="sans-serif" font-size="13" lengthAdjust="spacingAndGlyphs" textLength="31" x="170.5" y="232.4951">loads</text><!--MD5=[dab2d016d88814c181a1c703bcac6aaa]
link winfuse to FSP_FSCTL_TRANSACT--><path d="M132,237.993 C132,213.48 132,179 132,179 C132,179 253.281,179 253.281,179 " fill="none" id="winfuse-&gt;FSP_FSCTL_TRANSACT" style="stroke: #A80036; stroke-width: 1.0;"/><path d="M260.2028,170.5428 A9,9 0 0 0 260.2028 187.4572" fill="none" style="stroke: #A80036; stroke-width: 1.5;"/><!--MD5=[32da0d62c2ed7a8cafc6e59da4de1b8a]
link wslfuse to devfuse--><path d="M420,237.993 C420,221.332 420,200.066 420,188.152 " fill="none" id="wslfuse-devfuse" style="stroke: #A80036; stroke-width: 1.0;"/><!--MD5=[53b00af5053937e29b413a3cb6ab0c0e]
reverse link wslfuse to lxldr--><path d="M468.355,249 C468.355,249 531.745,249 531.745,249 " fill="none" id="wslfuse&lt;-lxldr" style="stroke: #A80036; stroke-width: 1.0; stroke-dasharray: 7.0,7.0;"/><polygon fill="#A80036" points="463.355,249,472.355,253,468.355,249,472.355,245,463.355,249" style="stroke: #A80036; stroke-width: 1.0;"/><text fill="#000000" font-family="sans-serif" font-size="13" lengthAdjust="spacingAndGlyphs" textLength="31" x="485" y="232.4951">loads</text><!--MD5=[8aaca77b0443a6cca9bfa7ca6bf3abc8]
link winfsp to wslfuse--><!--MD5=[52e1cc08413e4cb005350d574f532634]
reverse link FSP_FSCTL_TRANSACT to wslfuse--><path d="M291.632,179 C291.632,179 394,179 394,179 C394,179 394,213.48 394,237.993 " fill="none" id="FSP_FSCTL_TRANSACT&lt;-wslfuse" style="stroke: #A80036; stroke-width: 1.0;"/><path d="M284.7102,187.4572 A9,9 0 0 0 284.7102 170.5428" fill="none" style="stroke: #A80036; stroke-width: 1.5;"/><!--MD5=[5848c5c2675a482b4d38ab19220a6543]
reverse link FSP_FSCTL_TRANSACT to fspfs--><path d="M273,159.945 C273,159.945 273,73.704 273,73.704 " fill="none" id="FSP_FSCTL_TRANSACT&lt;-fspfs" style="stroke: #A80036; stroke-width: 1.0;"/><path d="M281.4572,166.8668 A9,9 0 0 0 264.5428 166.8668" fill="none" style="stroke: #A80036; stroke-width: 1.5;"/><!--MD5=[6af44398f4e0335a0045abef19abfad3]
reverse link FUSE_FSCTL_TRANSACT to winfs--><path d="M106,159.945 C106,159.945 106,73.704 106,73.704 " fill="none" id="FUSE_FSCTL_TRANSACT&lt;-winfs" style="stroke: #A80036; stroke-width: 1.0;"/><path d="M114.4572,166.8668 A9,9 0 0 0 97.5428 166.8668" fill="none" style="stroke: #A80036; stroke-width: 1.5;"/><!--MD5=[c57c2a4ecae0e547e98f4f78799e31c5]
reverse link devfuse to wslfs--><path d="M420,159.945 C420,159.945 420,73.704 420,73.704 " fill="none" id="devfuse&lt;-wslfs" style="stroke: #A80036; stroke-width: 1.0;"/><path d="M428.4572,166.8668 A9,9 0 0 0 411.5428 166.8668" fill="none" style="stroke: #A80036; stroke-width: 1.5;"/><!--MD5=[82469bcf22b86531dcf1eb8586a86d0e]
@startuml
left to right direction
skinparam componentStyle uml2
skinparam nodesep 50
skinparam ranksep 30
skinparam shadowing false
skinparam rectangle {
    fontcolor grey
    borderColor grey
    shadowing false
}
skinparam linetype ortho

rectangle NTOS {
    together dummy {
        component winfuse #Salmon
        interface "FUSE_FSCTL\nTRANSACT" as FUSE_FSCTL_TRANSACT #Salmon
        winfuse -right- FUSE_FSCTL_TRANSACT

        component winfsp
        interface "FSP_FSCTL\nTRANSACT" as FSP_FSCTL_TRANSACT
        winfsp -right- FSP_FSCTL_TRANSACT

        winfsp .up.> winfuse: loads
        winfuse -down-( FSP_FSCTL_TRANSACT
    }

    rectangle LXCORE {
        component wslfuse #Salmon
        interface "/dev/fuse" as devfuse #Salmon
        wslfuse -right- devfuse

        component lxldr

        lxldr .up.> wslfuse: loads
    }

    winfsp -[hidden]- wslfuse
    wslfuse -up-( FSP_FSCTL_TRANSACT
}

component "Windows\nWinFsp FS" as fspfs
fspfs -left-( FSP_FSCTL_TRANSACT

component "Windows\nFUSE FS" as winfs
winfs -left-( FUSE_FSCTL_TRANSACT

component "Linux\nFUSE FS" as wslfs
wslfs -left-( devfuse

@enduml

PlantUML version 1.2020.10(Sun May 17 02:35:57 PDT 2020)
(GPL source distribution)
Java Runtime: OpenJDK Runtime Environment
JVM: OpenJDK 64-Bit Server VM
Java Version: 14.0.2+12
Operating System: Windows 10
Default Encoding: Cp1252
Language: en
Country: US
--></g></svg>